<svg id="Capa_1" enable-background="new 0 0 512 512" height="512" viewBox="0 0 512 512" width="512" xmlns="http://www.w3.org/2000/svg"><g><path d="m189.931 5.333c-62.959 0-143.264 27.667-165.138 168.098 0 0 60.33-5.032 110.436-77.409 30.914-44.654 59.606-66.762 79.029-77.597l6.992-9.925c-8.09-1.736-17.15-3.167-31.319-3.167z" fill="#b3e59f"/><path d="m383 420.667c-36.387 52.559-67.594 73.529-86.333 82l4.146 8.049c6.102.746 13.151 1.249 21.229 1.249 28.507 0 64.415-6.462 95.471-26.7l16.514-12.571c28.208-24.957 49.635-64.355 52.819-125.053-.001 0-53.739.65-103.846 73.026z" fill="#b3e59f"/><g fill="#95d6a4"><path d="m236.562 184.316c-4.564 0-8.257 3.693-8.257 8.257v122.281c0 4.564 3.693 8.257 8.257 8.257s8.257-3.693 8.257-8.257v-122.281c-.001-4.564-3.694-8.257-8.257-8.257z"/><path d="m188.586 245.976c6.345-6.554 10.295-15.443 10.295-25.262 0-20.07-16.328-36.398-36.39-36.398h-35.519c-4.564 0-8.257 3.693-8.257 8.257v122.281c0 2.193.879 4.306 2.435 5.854 1.54 1.54 3.637 2.403 5.822 2.403h.04s32.673-.145 41.68-.145c22.698 0 41.172-18.473 41.172-41.172 0-15.447-8.657-28.775-21.278-35.818zm-26.095-45.146c10.958 0 19.876 8.918 19.876 19.884 0 10.958-8.918 19.876-19.876 19.876-2.634 0-27.262.032-27.262.032v-39.792zm6.201 105.623c-6.12 0-23.142.065-33.463.113v-49.374c4.24-.017 33.463-.054 33.463-.054 13.595 0 24.658 11.063 24.658 24.658s-11.063 24.657-24.658 24.657z"/><path d="m333.637 184.316c-38.261 0-69.394 31.133-69.394 69.402 0 38.261 31.133 69.394 69.394 69.394 38.269 0 69.402-31.133 69.402-69.394-.001-38.269-31.133-69.402-69.402-69.402zm0 122.282c-29.157 0-52.88-23.723-52.88-52.88 0-29.165 23.723-52.888 52.88-52.888 29.165 0 52.888 23.722 52.888 52.888 0 29.157-23.723 52.88-52.888 52.88z"/><path d="m223.376 3.303c-8.095-1.74-19.243-3.267-33.445-3.267-57.836 0-146.054 26.687-162.439 141.032-7.039 13.935-12.593 27.911-17.015 42.98l15.889 4.521c5.951-20.079 14.43-39.261 25.277-57.017 2.949-4.827 8.308-7.663 13.965-7.663h46.822c4.811-5.01 9.614-10.443 14.372-16.514h-58.226c15.985-20.168 35.156-37.897 57.041-52.164 3.63-2.367 4.736-6.97 2.767-10.831-.025-.049-.05-.099-.075-.149-2.12-4.198-7.602-5.564-11.543-2.999-4.953 3.224-9.745 6.653-14.435 10.198-6.304 3.804-10.372-1.792-6.121-5.993 21.639-17.195 51.751-28.887 93.721-28.887 9.859 0 17.894.819 24.327 1.875 3.715-2.07 7.119-3.719 10.108-5.047 4.706-2.09 4.044-8.993-.99-10.075z"/></g><path d="m17.294 178.284c-3.197.422-5.898 2.673-6.816 5.764-5.121 17.249-8.478 35.119-9.787 53.382-.331 4.548 3.096 8.499 7.644 8.821.202.016.395.024.597.024 4.29 0 7.918-3.322 8.225-7.668 1.228-17.124 4.389-33.873 9.21-50.038 1.679-5.629-3.066-11.078-8.889-10.309-.062.008-.123.016-.184.024z" fill="#78c2a4"/><path d="m484.029 328.108c-1.33 4.204-2.378 7.552-3.929 11.671-17.288 3.713-63.503 18.634-103.357 76.2-36.375 52.542-69.673 73.869-88.416 82.346-4.888 2.211-4.075 9.463 1.178 10.55 3.292.681 7.062 1.322 11.307 1.841 21.659-10.966 54.347-34.55 89.51-85.336 3.754-5.423 7.556-10.399 11.374-15.003 3.08-3.713 7.721-5.752 12.545-5.752h29.204c-17.685 22.34-39.333 41.632-64.162 56.622-3.309 1.998-4.848 5.953-3.625 9.621 1.653 4.958 7.506 7.246 11.981 4.547 10.499-6.334 20.477-13.373 29.872-21.059v30.91c5.691-3.71 11.224-7.89 16.514-12.571v-33.074c30.415-29.605 53.075-65.97 65.918-106.483zm-28.519 60.003h-32.226c18.811-16.436 36.41-24.82 48.597-28.98-4.81 10.019-10.24 19.725-16.371 28.98z" fill="#95d6a4"/><path d="m487.105 337.392c4.66 3.346 11.092 1.21 12.839-4.254 6.022-18.837 9.897-38.471 11.337-58.568.331-4.548-3.096-8.499-7.644-8.821-4.451-.323-8.507 3.096-8.821 7.644-1.35 18.794-5.12 37.104-10.787 54.715-1.093 3.398.025 7.11 2.932 9.181.048.034.096.068.144.103z" fill="#78c2a4"/><path d="m5.298 322.126c0 62.959 27.667 143.264 168.098 165.138 0 0-5.032-60.33-77.409-110.436-44.654-30.914-66.762-59.606-77.597-79.029l-9.925-6.992c-1.736 8.09-3.167 17.15-3.167 31.319z" fill="#b3e59f"/><path d="m3.267 288.681c-1.74 8.095-3.267 19.243-3.267 33.445 0 57.836 26.687 146.054 141.032 162.439 13.935 7.039 27.911 12.593 42.98 17.015l4.521-15.889c-20.079-5.951-39.261-14.43-57.017-25.277-4.827-2.949-7.663-8.308-7.663-13.965v-46.822c-5.01-4.811-10.443-9.614-16.514-14.372v58.227c-20.168-15.985-37.897-35.156-52.164-57.041-2.367-3.63-6.97-4.736-10.831-2.767-.049.025-.099.05-.149.075-4.198 2.12-5.564 7.602-2.999 11.543 3.224 4.953 6.653 9.745 10.198 14.435 3.804 6.304-1.792 10.372-5.993 6.121-17.195-21.639-28.887-51.751-28.887-93.721 0-9.859.819-17.894 1.875-24.327-2.07-3.715-3.719-7.119-5.047-10.108-2.09-4.707-8.993-4.046-10.075.989z" fill="#95d6a4"/><path d="m178.248 494.763c.422 3.197 2.673 5.898 5.764 6.816 17.249 5.12 35.119 8.478 53.382 9.786 4.548.331 8.499-3.096 8.821-7.644.016-.202.024-.395.024-.597 0-4.29-3.322-7.918-7.668-8.225-17.124-1.228-33.873-4.389-50.038-9.21-5.629-1.679-11.078 3.066-10.309 8.889.008.063.016.124.024.185z" fill="#78c2a4"/><path d="m420.702 129.078c52.559 36.387 73.529 67.594 82 86.333l8.049-4.146c.746-6.102 1.249-13.151 1.249-21.229 0-28.507-6.462-64.415-26.7-95.471l-12.57-16.513c-24.957-28.208-64.355-49.635-125.053-52.819 0 0 .649 53.739 73.025 103.845z" fill="#b3e59f"/><path d="m328.143 28.049c4.204 1.33 7.552 2.378 11.671 3.929 3.713 17.288 18.634 63.503 76.2 103.357 52.542 36.375 73.869 69.673 82.346 88.416 2.211 4.888 9.463 4.075 10.55-1.178.681-3.292 1.322-7.062 1.841-11.307-10.966-21.659-34.55-54.347-85.336-89.51-5.423-3.754-10.399-7.556-15.003-11.374-3.713-3.08-5.752-7.721-5.752-12.545v-29.205c22.34 17.685 41.632 39.333 56.622 64.162 1.998 3.309 5.953 4.848 9.621 3.625 4.958-1.653 7.246-7.506 4.547-11.981-6.334-10.499-13.373-20.477-21.059-29.872h30.91c-3.71-5.691-7.89-11.224-12.571-16.514h-33.074c-29.605-30.415-65.97-53.075-106.483-65.918zm60.003 28.519v32.226c-16.436-18.811-24.82-36.41-28.98-48.597 10.019 4.81 19.726 10.24 28.98 16.371z" fill="#95d6a4"/><path d="m337.427 24.973c3.346-4.66 1.21-11.092-4.254-12.839-18.837-6.022-38.471-9.897-58.568-11.337-4.548-.331-8.499 3.096-8.821 7.644-.323 4.451 3.096 8.507 7.644 8.821 18.795 1.35 37.104 5.12 54.715 10.787 3.398 1.093 7.11-.025 9.181-2.932.034-.048.069-.096.103-.144z" fill="#78c2a4"/></g></svg>