<svg height="512pt" viewBox="0 0 512 511" width="512pt" xmlns="http://www.w3.org/2000/svg"><path d="m369.5 7.738281c-47.613281 0-89.464844 28.140625-113.5 70.648438-24.035156-42.507813-65.886719-70.648438-113.5-70.648438-74.558594 0-135 69-135 154.121094 0 219.195313 248.5 341.347656 248.5 341.347656s248.5-117.589843 248.5-341.347656c0-85.121094-60.441406-154.121094-135-154.121094zm0 0" fill="#49cb5c"/><path d="m369.5 7.738281c-7.5 0-14.855469.699219-22.023438 2.042969 64.105469 11.984375 113.023438 75.503906 113.023438 152.078125 0 182.414063-165.144531 294.265625-226.175781 329.371094 13.449219 7.933593 21.675781 11.980469 21.675781 11.980469s248.5-117.589844 248.5-341.351563c0-85.121094-60.441406-154.121094-135-154.121094zm0 0" fill="#07b128"/><path d="m383.628906 255.734375c0 70.488281-57.140625 127.628906-127.628906 127.628906s-127.628906-57.140625-127.628906-127.628906c0-70.484375 57.140625-127.625 127.628906-127.625s127.628906 57.140625 127.628906 127.625zm0 0" fill="#97c9e8"/><path d="m256 128.109375c-7.503906 0-14.851562.652344-22 1.894531 60.003906 10.425782 105.628906 62.75 105.628906 125.730469 0 62.984375-45.625 115.308594-105.628906 125.734375 7.148438 1.242188 14.496094 1.894531 22 1.894531 70.488281 0 127.628906-57.140625 127.628906-127.628906 0-70.484375-57.140625-127.625-127.628906-127.625zm0 0" fill="#60b6ff"/><path d="m264.390625 128.390625c-.261719.101563-.402344.164063-.402344.164063s-4.917969 36.867187-24.578125 49.152343c-19.660156 12.289063-34.40625 31.949219-23.347656 54.066407 11.058594 22.121093 35.636719 13.519531 58.367188 10.445312 22.734374-3.070312 5.53125 66.96875 19.046874 84.171875 13.515626 17.203125 51.609376-17.203125 47.921876-39.320313-5.457032-32.746093-7.371094-44.234374 36.867187-67.582031h.132813c-14.863282-50.257812-59.824219-87.582031-114.007813-91.097656zm0 0" fill="#baeb6c"/><path d="m171.214844 313.488281c-5.902344-8.980469 10.445312-30.105469 14.128906-46.078125 3.6875-15.972656-18.429688-14.746094-25.1875-20.273437-6.757812-5.53125-15.976562-29.492188-22.734375-35.023438 0 0-.917969.980469-2.398437 2.859375-4.3125 12.800782-6.652344 26.507813-6.652344 40.761719 0 40.964844 19.300781 77.414063 49.300781 100.769531 1.753906-.328125 2.757813-.621094 2.757813-.621094s4.914062-20.890624-9.214844-42.394531zm0 0" fill="#baeb6c"/><path d="m339.613281 254.378906c2.992188-11.917968 13.15625-21.4375 38.652344-34.890625h.132813c-4.179688-14.136719-10.742188-27.246093-19.21875-38.871093-21.664063-29.707032-55.84375-49.699219-94.789063-52.226563-.261719.101563-.402344.167969-.402344.167969s-.535156 3.980468-1.941406 9.75c45.214844 19.292968 77.023437 63.929687 77.566406 116.070312zm0 0" fill="#96d629"/><path d="m341.402344 287.070312c-1.101563-6.605468-2.058594-12.347656-2.519532-17.496093-2.195312 20.328125-9.152343 39.230469-19.75 55.550781 12.8125-8.734375 24.378907-25.402344 22.269532-38.054688zm0 0" fill="#96d629"/><path d="m369.5.5c-44.976562 0-86.613281 23.644531-113.5 63.851562-26.886719-40.207031-68.523438-63.851562-113.5-63.851562-78.574219 0-142.5 72.503906-142.5 161.621094 0 51.277344 13.378906 101.554687 39.761719 149.429687 20.992187 38.097657 50.222656 74.75 86.875 108.929688 62.21875 58.027343 123.476562 88.457031 126.054687 89.722656 1.042969.511719 2.175782.769531 3.308594.769531 1.097656 0 2.191406-.242187 3.210938-.722656.726562-.34375 18.117187-8.621094 43.8125-24.941406 8.140624-5.171875.082031-17.828125-8.042969-12.660156-18.523438 11.765624-32.792969 19.3125-38.917969 22.421874-13.488281-7.105468-66.832031-36.648437-119.492188-85.835937-35.414062-33.078125-63.605468-68.445313-83.78125-105.121094-25.074218-45.574219-37.789062-93.347656-37.789062-141.992187 0-80.847656 57.195312-146.621094 127.5-146.621094 43.316406 0 83.304688 24.988281 106.972656 66.839844 2.804688 4.964844 10.269532 4.925781 13.054688 0 23.667968-41.851563 63.65625-66.839844 106.972656-66.839844 70.304688 0 127.5 65.773438 127.5 146.621094 0 59.984375-18.445312 117.8125-54.824219 171.875-27.15625 40.359375-63.726562 78.023437-108.691406 111.957031-7.699219 5.808594 1.347656 17.773437 9.035156 11.972656 46.296875-34.933593 84.015625-73.8125 112.101563-115.554687 38.074218-56.585938 57.378906-117.230469 57.378906-180.25 0-89.117188-63.925781-161.621094-142.5-161.621094zm0 0"/><path d="m148.230469 174.46875c-17.898438 23.625-27.359375 51.816406-27.359375 81.53125 0 74.507812 60.617187 135.128906 135.128906 135.128906s135.128906-60.621094 135.128906-135.128906c0-74.511719-60.617187-135.128906-135.128906-135.128906-26.464844 0-52.09375 7.648437-74.117188 22.125-8.0625 5.292968.1875 17.824218 8.234376 12.535156 19.292968-12.679688 41.710937-19.453125 64.886718-19.640625-2.769531 11.6875-8.910156 29.058594-19.566406 35.71875-27.65625 17.289063-37.40625 41.128906-26.082031 63.78125 11.832031 23.667969 36.152343 19.511719 55.6875 16.179687 3.441406-.589843 6.996093-1.195312 10.394531-1.65625.230469-.027343.382812-.03125.46875-.03125.050781 0 .070312 0 .074219-.003906.164062.128906 1.976562 1.714844 3.035156 10.058594.875 6.914062.910156 15.558594.949219 24.707031.074218 19.097657.148437 37.140625 7.617187 46.644531 3.925781 4.992188 9.347657 7.539063 15.644531 7.539063 3.835938 0 8-.945313 12.34375-2.859375 17.894532-7.898438 36.308594-31.402344 33.230469-49.867188-2.53125-15.1875-4.203125-25.21875-.742187-33.050781 3.054687-6.910156 10.820312-13.71875 25.433594-22.121093 1.722656 8.089843 2.636718 16.472656 2.636718 25.070312 0 66.238281-53.890625 120.128906-120.128906 120.128906-25.128906 0-48.476562-7.761718-67.785156-21.007812.972656-6.960938 2.0625-26.011719-10.691406-45.410156-1.0625-2.734376 4.023437-13.4375 6.757812-19.1875 3.332031-7.007813 6.777344-14.257813 8.371094-21.164063 4.121094-17.859375-12.699219-22.828125-20.785156-25.21875-2.398438-.707031-6.019532-1.777344-6.960938-2.546875-2.238281-1.832031-6.445312-9.605469-9.523438-15.277344-3.617187-6.683594-6.855468-12.648437-10.238281-16.71875 3.859375-9.191406 8.878907-17.9375 15.042969-26.070312 5.820312-7.6875-6.140625-16.730469-11.957031-9.058594zm186.105469 72.515625c-5.273438 11.9375-3.203126 24.371094-.332032 41.582031 1.691406 10.152344-11.125 27.78125-24.488281 33.675782-4.910156 2.167968-8.320313 2.09375-10.140625-.222657-4.28125-5.449219-4.359375-23.9375-4.414062-37.433593-.082032-20.5-.15625-38.207032-9.105469-46-3.394531-2.953126-7.699219-4.175782-12.425781-3.535157-3.65625.492188-7.34375 1.125-10.910157 1.730469-22.871093 3.902344-33.539062 4.316406-39.746093-8.097656-3.605469-7.210938-8.8125-25.960938 20.613281-44.355469 16.960937-10.597656 24.179687-35.457031 26.785156-47.617187 46.015625 5.433593 84.144531 36.972656 99.128906 79.359374-20.1875 11.183594-30.179687 20.089844-34.964843 30.914063zm-192.140626-13.523437c4.660157 8.609374 8.6875 16.042968 13.210938 19.742187 3.285156 2.6875 7.621094 3.96875 12.210938 5.324219 11.367187 3.359375 11.070312 4.644531 10.417968 7.457031-1.226562 5.316406-4.3125 11.816406-7.300781 18.097656-6.042969 12.710938-11.75 24.714844-5.789063 33.789063 6.214844 9.457031 8.234376 18.6875 8.714844 25.511718-23.25-21.917968-37.789062-52.984374-37.789062-87.382812 0-9.582031 1.121094-18.980469 3.289062-28.074219 1.058594 1.886719 2.097656 3.808594 3.035156 5.535157zm0 0"/><path d="m418.179688 69.523438c21.957031 18.726562 36.0625 46.050781 41.921874 81.210937.613282 3.667969 3.789063 6.265625 7.390626 6.265625 4.523437 0 8.152343-4.265625 7.40625-8.734375-8.125-48.746094-30.425782-76.261719-47.703126-90.761719-19.023437-15.964844-36.257812-20.136718-36.980468-20.304687-9.359375-2.195313-12.773438 12.332031-3.453125 14.597656.144531.035156 15.054687 3.769531 31.417969 17.726563zm0 0"/></svg>